# xmcd
#
# Track frame offsets: 
#        150
#        26523
#        50881
#        77062
#        100300
#        134774
#        160109
#        179322
#        194461
#        212722
#        238873
#
# Disc length: 3413 seconds
#
# Revision: 0
# Processed by: cddbd v1.5.2PL0 Copyright (c) Steve Scherf et al.
# Submitted via: ExactAudioCopyFreeDBPlugin 1.0
#
DISCID=9e0d530b
DTITLE=Sidi Touré - Alafia
DYEAR=2013
DGENRE=Ethnic
TTITLE0=Ay Hôra - My Dance
TTITLE1=Ay Takamba - My Takamba
TTITLE2=L’eau - The Water
TTITLE3=Waayey - The Butcher
TTITLE4=La Paix - Peace
TTITLE5=Gandyey - The Spirits
TTITLE6=Annour El Sahel - The Light of Sahel
TTITLE7=Les Médicaments de la Rue - Street Medicines
TTITLE8=Mali
TTITLE9=Ir Wangarey - The Army
TTITLE10=Boro Ganda - My Land
EXTD=
EXTT0=
EXTT1=
EXTT2=
EXTT3=
EXTT4=
EXTT5=
EXTT6=
EXTT7=
EXTT8=
EXTT9=
EXTT10=
PLAYORDER=
